<?xml version="1.0" encoding="UTF-8"?>
<svg id="Layer_2" data-name="Layer 2" xmlns="http://www.w3.org/2000/svg" viewBox="0 0 71.44 71.44">
  <defs>
    <style>
      .cls-1 {
        fill: #fff;
      }

      .cls-2 {
        fill: #3177cd;
      }
    </style>
  </defs>
  <g id="_レイヤー_1" data-name="レイヤー 1">
    <g>
      <circle class="cls-2" cx="35.72" cy="35.72" r="35.72"/>
      <path class="cls-1" d="m50.97,20.22h-30.49c-3.24,0-5.86,2.62-5.86,5.86v19.29c0,3.24,2.62,5.86,5.86,5.86h30.49c3.24,0,5.86-2.62,5.86-5.86v-19.29c0-3.24-2.62-5.86-5.86-5.86Zm-21.66,20.92l-8.21,7c-.58.49-1.45.43-1.94-.15-.49-.58-.43-1.45.15-1.94l8.21-7c.58-.49,1.45-.43,1.94.15.49.58.43,1.45-.15,1.94Zm6.42-2.66c-1.1,0-2.16-.37-2.99-1.09h0s0,0,0,0c0,0,0,0,0,0l-12.59-10.93c-.58-.5-.64-1.37-.14-1.94.5-.58,1.37-.64,1.94-.14l12.59,10.93c.27.24.71.41,1.18.41.47,0,.91-.17,1.19-.41h0s12.58-10.93,12.58-10.93c.57-.5,1.44-.44,1.94.14.5.57.44,1.44-.14,1.94l-12.59,10.93c-.83.71-1.89,1.08-2.99,1.08Zm16.56,9.51c-.49.58-1.36.65-1.94.15l-8.21-7c-.58-.49-.65-1.36-.15-1.94.49-.58,1.36-.65,1.94-.15l8.21,7c.58.49.65,1.36.15,1.94Z"/>
    </g>
  </g>
</svg>