<?xml version="1.0" encoding="UTF-8"?>
<svg id="Layer_2" data-name="Layer 2" xmlns="http://www.w3.org/2000/svg" viewBox="0 0 212.05 44.43">
  <defs>
    <style>
      .cls-1 {
        fill: #fff;
      }
    </style>
  </defs>
  <g id="_レイヤー_1" data-name="レイヤー 1">
    <g>
      <path class="cls-1" d="m0,21.98C0,9.84,9.84,0,21.98,0c.24,0,.48.03.73.04C14.8,1.75,7.17,9.01,5.16,17.04c-2.16,8.63,3,14.88,11.52,13.96,1.98-.22,3.95-.81,5.86-1.68-2.21,4.86-7.41,8.86-12.38,9.26-1.02.08-1.95,0-2.79-.2C2.86,34.35,0,28.51,0,21.98Zm21.1,5.61c.73-.08,1.47-.24,2.19-.44,1.34-5.35-1.76-9.28-7.13-8.85-1.63.13-3.28.66-4.85,1.47.23,5.1,4.08,8.43,9.79,7.81ZM42.27,7.07c-1.23-.14-2.39.25-3.28.99-1.77-2.16-3.95-3.98-6.42-5.34-1.44-.61-3.16-.86-5.09-.65-6.96.75-14.02,7.08-15.78,14.13-.25,1-.37,1.95-.39,2.86,2.61-1.88,5.58-3.13,8.49-3.37,5.89-.47,9.55,3.33,9.08,8.82-.02.15-.03.35-.08.63-.09.64-.22,1.3-.42,1.97-2.03,6.86-9.17,12.86-15.95,13.4-.84.07-1.63.03-2.37-.07,3.43,2.22,7.51,3.52,11.91,3.52,12.14,0,21.98-9.84,21.98-21.98,0-1.73-.2-3.42-.58-5.04,1.74-.56,3.05-2.22,3.2-4.31.19-2.78-1.73-5.27-4.31-5.56Zm-13.27,24.11c1.76-1.77,2.86-4.3,2.86-7.15.01-5.62-4.22-10.38-9.46-10.62-1.14-.05-2.24.12-3.25.47,1.72-1.72,4.05-2.72,6.63-2.6,5.24.24,9.47,5,9.46,10.63,0,4.39-2.61,8.02-6.25,9.28Zm12.11-12.8c-.24,3.74-2.64,6.69-5.79,7.57,1.59-1.41,2.66-3.51,2.81-5.94.31-4.78-3.05-9.05-7.48-9.53-.97-.1-1.91-.02-2.79.23,1.54-1.37,3.59-2.1,5.77-1.86,4.44.48,7.79,4.74,7.49,9.53Zm3.74-4.81c-.09,1.32-.65,2.46-1.48,3.27-.78-3.26-2.29-6.22-4.34-8.74.48-.11.98-.15,1.51-.09,2.58.3,4.51,2.79,4.31,5.56Z"/>
      <g>
        <path class="cls-1" d="m71.09,31.13c-7.04,0-12.76-5.72-12.76-12.76v-3.34c0-7.04,5.72-12.76,12.76-12.76h18.69v5.5h-18.69c-4,0-7.26,3.26-7.26,7.27v3.34c0,4.01,3.26,7.27,7.26,7.27h24.4c.43,0,.78-.35.78-.79v-.33c0-2.38-1.94-4.32-4.32-4.32h-19.06v-5.5h19.06c5.41,0,9.81,4.4,9.81,9.81v6.61h-30.68Z"/>
        <path class="cls-1" d="m164.53,31.13v-5.49h30.63c1.67,0,3.03-1.45,3.03-3.12s-1.36-3.03-3.03-3.03h-24.37c-4.75,0-8.62-3.85-8.62-8.59s3.87-8.62,8.62-8.62h18.44v5.49h-18.44c-1.67,0-3.03,1.46-3.03,3.12s1.36,3.01,3.03,3.01h24.37c4.75,0,8.62,3.87,8.62,8.62s-3.86,8.62-8.62,8.62h-30.63Z"/>
        <path class="cls-1" d="m119.96,7.76c-2.38,0-4.32,1.94-4.32,4.32v19.1h-5.49V12.08c0-5.41,4.4-9.81,9.81-9.81h25.91c5.41,0,9.82,4.4,9.82,9.81v9.5h-5.5v-9.5c0-2.38-1.94-4.32-4.32-4.32h-25.91Z"/>
        <rect class="cls-1" x="150.19" y="25.68" width="5.5" height="5.5"/>
        <path class="cls-1" d="m135.83,12.64c0,1.61-1.3,2.91-2.91,2.91s-2.91-1.3-2.91-2.91,1.3-2.91,2.91-2.91,2.91,1.3,2.91,2.91Z"/>
        <rect class="cls-1" x="93.88" y="2.26" width="5.5" height="5.5"/>
        <path class="cls-1" d="m132.92,18.03c-1.01,0-1.94-.29-2.75-.77v13.92h5.5v-13.92c-.81.48-1.74.77-2.75.77Z"/>
        <rect class="cls-1" x="193.33" y="2.26" width="5.5" height="5.5"/>
      </g>
      <g>
        <path class="cls-1" d="m208.8,28.23h-.79v1.57h-.71v-4.08h1.43c.24,0,.44.03.63.08.18.05.34.13.46.24.12.1.22.23.29.38.07.15.1.33.1.53,0,.27-.07.5-.2.68-.13.18-.32.33-.55.42l.92,1.7v.04h-.76l-.82-1.57Zm-.79-.57h.73c.13,0,.24-.02.33-.05.1-.03.18-.08.24-.14.06-.06.11-.13.14-.21.03-.08.05-.17.05-.27s-.01-.2-.04-.29c-.03-.08-.07-.16-.14-.22-.06-.06-.14-.11-.24-.14-.1-.03-.21-.05-.35-.05h-.72v1.37Z"/>
        <path class="cls-1" d="m208.69,24.47c-1.85,0-3.36,1.51-3.36,3.36s1.51,3.36,3.36,3.36,3.36-1.51,3.36-3.36-1.51-3.36-3.36-3.36Zm0,6.22c-1.58,0-2.86-1.28-2.86-2.86s1.28-2.86,2.86-2.86,2.86,1.29,2.86,2.86-1.28,2.86-2.86,2.86Z"/>
      </g>
      <g>
        <path class="cls-1" d="m67.73,42.84c-2.1,0-3.71-1.55-3.71-3.54s1.6-3.52,3.59-3.52c1.49,0,2.89.9,3.33,2.13h-1.49c-.42-.59-1.08-.91-1.87-.91-1.35,0-2.29,1.03-2.29,2.32s1.02,2.31,2.36,2.31c.9,0,1.63-.44,2-1.2h-2.82v-1.18h4.46v.17c0,1.85-1.55,3.43-3.56,3.43Z"/>
        <path class="cls-1" d="m72.46,42.73v-6.82h1.23v6.82h-1.23Z"/>
        <path class="cls-1" d="m77.62,42.84c-1.49,0-2.71-1.2-2.71-2.68s1.22-2.68,2.7-2.68,2.73,1.19,2.73,2.71c0,1.44-1.24,2.64-2.72,2.64Zm0-4.23c-.8,0-1.48.69-1.48,1.53s.66,1.57,1.49,1.57,1.48-.69,1.48-1.55-.67-1.55-1.49-1.55Z"/>
        <path class="cls-1" d="m84.4,42.84c-.76,0-1.25-.21-1.77-.77v.66h-1.13v-6.82h1.23v2.18c.47-.47.92-.66,1.59-.66,1.47,0,2.58,1.16,2.58,2.71s-1.05,2.71-2.49,2.71Zm-.26-4.29c-.86,0-1.49.66-1.49,1.58s.63,1.59,1.51,1.59,1.49-.64,1.49-1.58-.64-1.59-1.51-1.59Z"/>
        <path class="cls-1" d="m92.11,42.73v-.67c-.49.55-.98.79-1.7.79-1.5,0-2.58-1.12-2.58-2.66s1.09-2.69,2.6-2.69c.74,0,1.25.24,1.67.8v-.68h1.13v5.12h-1.13Zm-1.54-4.11c-.88,0-1.5.67-1.5,1.6s.62,1.5,1.51,1.5,1.49-.66,1.49-1.51c0-.93-.63-1.59-1.51-1.59Z"/>
        <path class="cls-1" d="m94.61,42.73v-6.82h1.23v6.82h-1.23Z"/>
        <path class="cls-1" d="m106.32,42.73v-5.12l-1.78,5.12h-1.03l-1.78-5.12v5.12h-1.26v-6.82h1.73l1.84,5.17,1.82-5.17h1.74v6.82h-1.26Z"/>
        <path class="cls-1" d="m111.59,42.84c-1.49,0-2.71-1.2-2.71-2.68s1.22-2.68,2.71-2.68,2.73,1.19,2.73,2.71c0,1.44-1.24,2.64-2.72,2.64Zm0-4.23c-.8,0-1.48.69-1.48,1.53s.65,1.57,1.49,1.57,1.48-.69,1.48-1.55-.66-1.55-1.49-1.55Z"/>
        <path class="cls-1" d="m118.37,42.84c-.76,0-1.25-.21-1.77-.77v.66h-1.13v-6.82h1.23v2.18c.47-.47.92-.66,1.59-.66,1.47,0,2.58,1.16,2.58,2.71s-1.05,2.71-2.49,2.71Zm-.26-4.29c-.86,0-1.49.66-1.49,1.58s.63,1.59,1.51,1.59,1.49-.64,1.49-1.58-.64-1.59-1.51-1.59Z"/>
        <path class="cls-1" d="m122.02,42.73v-5.12h1.23v5.12h-1.23Zm0-5.85v-1.23h1.23v1.23h-1.23Z"/>
        <path class="cls-1" d="m124.7,42.73v-6.82h1.23v6.82h-1.23Z"/>
        <path class="cls-1" d="m127.37,42.73v-5.12h1.23v5.12h-1.23Zm.01-5.85v-1.23h1.23v1.23h-1.23Z"/>
        <path class="cls-1" d="m131.46,38.73v4h-1.23v-4h-.6v-1.12h.6v-1.71h1.23v1.71h.74v1.12h-.74Z"/>
        <path class="cls-1" d="m135.07,44.43h-1.32l.96-2.19-1.87-4.64h1.4l1.14,3.31,1.24-3.31h1.41l-2.95,6.82Z"/>
        <path class="cls-1" d="m144.02,42.84c-1.2,0-2.13-.77-2.24-2.07h1.32c.06.57.36.85.92.85s.93-.34.93-.83c0-.28-.11-.54-.31-.69-.2-.16-.28-.18-1.18-.53-.92-.34-1.42-.99-1.42-1.86,0-1.08.89-1.94,1.99-1.94s1.96.74,2.02,1.94h-1.31c-.04-.46-.29-.72-.72-.72s-.7.29-.7.69c0,.25.13.46.38.62.09.06.11.07.76.3,1.39.52,1.76,1.12,1.76,2.04,0,1.24-.95,2.19-2.18,2.19Z"/>
        <path class="cls-1" d="m152.47,40.71h-3.96c.15.62.68,1.01,1.41,1.01.51,0,.81-.14,1.12-.51h1.34c-.34,1.05-1.4,1.63-2.44,1.63-1.56,0-2.77-1.16-2.77-2.66s1.19-2.69,2.7-2.69,2.64,1.16,2.64,2.75c0,.19,0,.29-.04.47Zm-2.57-2.1c-.73,0-1.23.36-1.42,1.02h2.83c-.16-.65-.65-1.02-1.41-1.02Z"/>
        <path class="cls-1" d="m155,39.88v2.84h-1.23v-5.12h1.12v.5c.32-.47.58-.62,1.11-.62h.09v1.18c-.74.02-1.1.41-1.1,1.21Z"/>
        <path class="cls-1" d="m159.74,42.73h-.98l-2.06-5.12h1.37l1.18,3.39,1.16-3.39h1.38l-2.06,5.12Z"/>
        <path class="cls-1" d="m162.82,42.73v-5.12h1.23v5.12h-1.23Zm0-5.85v-1.23h1.23v1.23h-1.23Z"/>
        <path class="cls-1" d="m168.01,42.84c-1.51,0-2.73-1.19-2.73-2.68s1.18-2.68,2.7-2.68c1.17,0,2.18.65,2.58,1.83h-1.38c-.25-.47-.64-.7-1.19-.7-.85,0-1.46.65-1.46,1.54s.64,1.56,1.49,1.56c.51,0,.86-.2,1.16-.67h1.38c-.42,1.14-1.35,1.8-2.54,1.8Z"/>
        <path class="cls-1" d="m176.93,40.71h-3.96c.15.62.68,1.01,1.41,1.01.51,0,.81-.14,1.13-.51h1.34c-.34,1.05-1.4,1.63-2.44,1.63-1.56,0-2.77-1.16-2.77-2.66s1.19-2.69,2.69-2.69,2.64,1.16,2.64,2.75c0,.19-.01.29-.05.47Zm-2.57-2.1c-.73,0-1.23.36-1.42,1.02h2.83c-.16-.65-.66-1.02-1.41-1.02Z"/>
        <path class="cls-1" d="m181.41,42.73v-6.82h1.27v6.82h-1.27Z"/>
        <path class="cls-1" d="m187.64,42.73v-2.5c0-1.37-.37-1.61-.98-1.61-.39,0-.71.17-.91.47-.15.25-.2.55-.2,1.23v2.41h-1.23v-5.12h1.14v.49c.45-.43.86-.61,1.44-.61.71,0,1.27.26,1.6.74.28.4.37.84.37,1.75v2.74h-1.23Z"/>
        <path class="cls-1" d="m192.84,42.84c-1.51,0-2.73-1.19-2.73-2.68s1.18-2.68,2.7-2.68c1.16,0,2.18.65,2.57,1.83h-1.38c-.25-.47-.64-.7-1.19-.7-.85,0-1.46.65-1.46,1.54s.64,1.56,1.49,1.56c.51,0,.86-.2,1.16-.67h1.38c-.43,1.14-1.35,1.8-2.54,1.8Z"/>
        <path class="cls-1" d="m196.86,42.73v-1.18h1.23v1.18h-1.23Z"/>
      </g>
    </g>
  </g>
</svg>